<svg width="25.227539" height="19.007446" viewBox="0 0 25.2275 19.0074" fill="none" xmlns="http://www.w3.org/2000/svg" xmlns:xlink="http://www.w3.org/1999/xlink">
	<desc>
			Created with Pixso.
	</desc>
	<defs/>
	<g>
		<g style="mix-blend-mode:normal">
			<path id="Intersect" d="M8.80103 16.7678C8.18042 16.2903 7.81128 15.719 7.81128 15.0577L7.81128 11.5433C7.81519 11.5159 7.82141 11.4888 7.82996 11.4625C7.82031 11.4174 7.81396 11.3716 7.81128 11.3256C7.81128 9.01797 12.1902 7.81128 16.5194 7.81128C20.8485 7.81128 25.2275 9.01797 25.2275 11.3256C25.2247 11.3716 25.2185 11.4174 25.2089 11.4625C25.2173 11.4888 25.2235 11.5159 25.2275 11.5433L25.2275 15.0577C25.2247 15.2975 25.174 15.5344 25.0782 15.7543C25.0812 15.7561 25.0841 15.758 25.087 15.7598C23.6615 17.7021 20.8472 19.0074 16.8304 19.0074C13.5565 19.0074 10.7124 18.1402 8.80103 16.7678ZM9.0553 15.0577C9.0553 15.4184 9.49695 15.8414 10.2993 16.2208L10.2993 14.0313C10.3036 13.9744 10.3141 13.9181 10.3304 13.8634C9.88342 13.6966 9.45593 13.4818 9.0553 13.2227L9.0553 15.0577ZM23.9835 13.2227C23.5829 13.4818 23.1553 13.6966 22.7084 13.8634C22.7247 13.9181 22.7351 13.9744 22.7395 14.0313L22.7395 16.2208C23.5419 15.8414 23.9835 15.4184 23.9835 15.0577L23.9835 13.2227ZM11.5433 16.6873C12.974 17.0845 14.45 17.2956 15.9347 17.3156C15.9127 17.2599 15.9001 17.2011 15.8973 17.1414L15.8973 14.8275C14.4287 14.8011 12.9679 14.607 11.5433 14.2491L11.5433 16.6873ZM21.4955 14.2491C20.0708 14.607 18.61 14.8011 17.1414 14.8275L17.1414 17.1414C17.1385 17.2011 17.126 17.2599 17.1041 17.3156C18.5887 17.2956 20.0647 17.0845 21.4955 16.6873L21.4955 14.2491Z" clip-rule="evenodd" fill="#FFFFFF" fill-opacity="1.000000" fill-rule="evenodd"/>
		</g>
		<g style="mix-blend-mode:normal">
			<path id="Intersect" d="M17.916 8.42899C15.9452 10.1031 12.6949 11.1962 9.01917 11.1962C6.03137 11.1962 3.32471 10.4739 1.35779 9.30453C1.35925 9.30063 1.36084 9.29672 1.3623 9.29285L1.39966 9.23688C0.535034 8.70816 0.00012207 8.0426 0.00012207 7.24646L0.00012207 3.73212C0.00402832 3.70468 0.0102539 3.67761 0.0187988 3.65125C0.00915527 3.60617 0.00280762 3.56042 0.00012207 3.5144C0.00012207 1.20676 4.37903 6.10352e-05 8.70825 6.10352e-05C13.0374 6.10352e-05 17.4164 1.20676 17.4164 3.5144C17.4136 3.56042 17.4073 3.60617 17.3977 3.65125C17.4061 3.67761 17.4124 3.70468 17.4164 3.73212L17.4164 7.24646C17.4136 7.4863 17.3628 7.72318 17.2671 7.94308C17.527 8.10358 17.7408 8.26666 17.916 8.42899ZM1.24414 7.24646C1.24414 7.60721 1.68579 8.03018 2.48816 8.40961L2.48816 6.22012C2.49243 6.16321 2.50293 6.1069 2.51929 6.05219C2.07227 5.88541 1.64478 5.67059 1.24414 5.41153L1.24414 7.24646ZM16.1724 5.41153C15.7717 5.67059 15.3441 5.88541 14.8972 6.05219C14.9136 6.1069 14.924 6.16321 14.9283 6.22012L14.9283 8.40961C15.7307 8.03018 16.1724 7.60721 16.1724 7.24646L16.1724 5.41153ZM3.73218 8.8761C5.16284 9.27325 6.63879 9.48441 8.12354 9.50433C8.10156 9.44873 8.08899 9.38989 8.08618 9.33017L8.08618 7.0163C6.61755 6.9899 5.15674 6.79581 3.73218 6.43784L3.73218 8.8761ZM13.6843 6.43784C12.2596 6.79581 10.7988 6.9899 9.3302 7.0163L9.3302 9.33017C9.32739 9.38989 9.31482 9.44873 9.29297 9.50433C10.7776 9.48441 12.2535 9.27325 13.6843 8.8761L13.6843 6.43784Z" clip-rule="evenodd" fill="#FFFFFF" fill-opacity="1.000000" fill-rule="evenodd"/>
		</g>
	</g>
</svg>
