<svg width="32.000000" height="16.000000" viewBox="0 0 32 16" fill="none" xmlns="http://www.w3.org/2000/svg" xmlns:xlink="http://www.w3.org/1999/xlink">
	<desc>
			Created with Pixso.
	</desc>
	<defs/>
	<path id="Vector" d="M16 9C18.17 9 20.09 9.51 21.65 10.2C23.09 10.84 24 12.28 24 13.84L24 16L8 16L8 13.85C8 12.28 8.9 10.84 10.34 10.21C11.9 9.51 13.82 9 16 9ZM5.33 9.33C6.8 9.33 8 8.13 8 6.66C8 5.2 6.8 4 5.33 4C3.86 4 2.66 5.2 2.66 6.66C2.66 8.13 3.86 9.33 5.33 9.33ZM6.83 10.8C6.34 10.72 5.85 10.66 5.33 10.66C4.01 10.66 2.76 10.94 1.62 11.44C1.14 11.64 0.73 11.99 0.44 12.42C0.15 12.86 -0.01 13.38 0 13.9L0 16L6 16L6 13.85C6 12.74 6.3 11.7 6.83 10.8ZM26.66 9.33C28.13 9.33 29.33 8.13 29.33 6.66C29.33 5.2 28.13 4 26.66 4C25.2 4 24 5.2 24 6.66C24 8.13 25.2 9.33 26.66 9.33ZM32 13.9C32 12.82 31.36 11.86 30.37 11.44C29.2 10.92 27.94 10.66 26.66 10.66C26.14 10.66 25.65 10.72 25.16 10.8C25.69 11.7 26 12.74 26 13.85L26 16L32 16L32 13.9ZM16 0C18.21 0 20 1.78 20 4C20 6.21 18.21 8 16 8C13.78 8 12 6.21 12 4C12 1.78 13.78 0 16 0Z" fill="#FFFFFF" fill-opacity="1.000000" fill-rule="nonzero"/>
</svg>
