<svg width="15.949951" height="18.220764" viewBox="0 0 15.95 18.2208" fill="none" xmlns="http://www.w3.org/2000/svg" xmlns:xlink="http://www.w3.org/1999/xlink">
	<desc>
			Created with Pixso.
	</desc>
	<defs/>
	<path id="Vector" d="M6.96 0.07C7.07 0 7.21 -0.02 7.34 0.01L10.73 0.86C10.86 0.89 10.96 0.96 11.03 1.07C11.1 1.18 11.13 1.31 11.1 1.43C13.47 2.54 15.23 4.36 15.92 6.41C15.95 6.52 15.95 6.63 15.92 6.74C15.88 6.84 15.81 6.93 15.71 6.99C15.62 7.05 15.51 7.08 15.4 7.07C15.28 7.06 15.18 7.01 15.1 6.93C13.89 5.77 12.3 4.76 10.46 4.03L10.43 4.13C10.4 4.26 10.32 4.37 10.2 4.44C10.09 4.51 9.95 4.53 9.83 4.49L9.34 4.37L8.43 8.01C8.56 8.05 8.67 8.13 8.74 8.24C8.81 8.35 8.83 8.49 8.8 8.62L6.5 17.84C6.47 17.97 6.39 18.08 6.27 18.14C6.16 18.21 6.02 18.23 5.89 18.2L3.47 17.6C3.34 17.56 3.23 17.48 3.16 17.37C3.09 17.25 3.07 17.12 3.1 16.99L5.4 7.77C5.43 7.64 5.52 7.53 5.63 7.46C5.74 7.4 5.88 7.38 6.01 7.41L6.92 3.77L6.43 3.65C6.37 3.63 6.31 3.6 6.25 3.57C6.2 3.53 6.16 3.48 6.12 3.42C6.09 3.36 6.07 3.3 6.06 3.24C6.05 3.17 6.05 3.11 6.07 3.04L6.09 2.94C4.12 2.72 2.24 2.87 0.63 3.32C0.52 3.36 0.41 3.35 0.31 3.31C0.2 3.26 0.12 3.19 0.06 3.09C0.01 2.99 -0.02 2.88 0 2.77C0.02 2.66 0.07 2.56 0.15 2.48C1.72 0.99 4.13 0.21 6.74 0.34C6.78 0.23 6.86 0.13 6.96 0.07Z" fill="#FFFFFF" fill-opacity="1.000000" fill-rule="nonzero"/>
</svg>
