<svg width="21.718994" height="18.000137" viewBox="0 0 21.719 18.0001" fill="none" xmlns="http://www.w3.org/2000/svg" xmlns:xlink="http://www.w3.org/1999/xlink">
	<desc>
			Created with Pixso.
	</desc>
	<defs/>
	<path id="Vector" d="M1.49 7.74C7.32 5.2 11.21 3.53 13.15 2.72C18.71 0.41 19.86 0.01 20.61 0C20.78 -0.01 21.15 0.03 21.39 0.23C21.59 0.39 21.64 0.61 21.67 0.77C21.7 0.93 21.73 1.28 21.7 1.56C21.4 4.72 20.1 12.39 19.44 15.94C19.16 17.43 18.61 17.94 18.07 17.99C16.91 18.09 16.03 17.22 14.9 16.48C13.14 15.33 12.15 14.61 10.44 13.48C8.47 12.18 9.75 11.47 10.87 10.3C11.17 9.99 16.28 5.34 16.38 4.92C16.39 4.86 16.41 4.67 16.29 4.56C16.17 4.46 16 4.49 15.88 4.52C15.7 4.56 12.89 6.42 7.44 10.1C6.64 10.65 5.92 10.91 5.27 10.9C4.56 10.88 3.18 10.5 2.16 10.16C0.91 9.76 -0.09 9.54 0 8.85C0.04 8.49 0.54 8.12 1.49 7.74Z" fill="#2C39B9" fill-opacity="1.000000" fill-rule="nonzero"/>
</svg>
